<svg id="Layer_1" data-name="Layer 1" xmlns="http://www.w3.org/2000/svg" viewBox="0 0 283.39 283.39"><defs><style>.cls-1{fill:#2c3f99;}.cls-2{fill:#5aa1b3;}.cls-10,.cls-11,.cls-12,.cls-13,.cls-14,.cls-15,.cls-16,.cls-17,.cls-18,.cls-19,.cls-2,.cls-20,.cls-21,.cls-3,.cls-7,.cls-9{fill-rule:evenodd;}.cls-3{fill:#034b56;}.cls-4{fill:#b2b2b7;}.cls-5,.cls-7{fill:#fff;}.cls-6{fill:#91aad8;}.cls-8{fill:#005fae;}.cls-9{fill:#33bbed;}.cls-10{fill:#2d419a;}.cls-12{fill:#d1a10b;}.cls-13{fill:#dfb95b;}.cls-14{fill:#1b0000;}.cls-15{fill:#fd0;}.cls-16{fill:#fdb812;}.cls-17{fill:#faa619;}.cls-18{fill:#fcaf16;}.cls-19{fill:#939598;}.cls-20{fill:#b1b3b6;}.cls-21{fill:#f15a21;}</style></defs><g id="background"><circle class="cls-1" cx="141.7" cy="141.7" r="141.7"/><path class="cls-2" d="M408.54,486.23a23.32,23.32,0,0,0,18.18-7.67l-13-9.29Z" transform="translate(-161.97 -278.86)"/><path class="cls-3" d="M198.4,485.57c-9-4.05-17-8.67-19.09-16.55L199,471.85Q198.73,478.71,198.4,485.57Z" transform="translate(-161.97 -278.86)"/><ellipse class="cls-4" cx="141.7" cy="141.55" rx="122.79" ry="126.5"/><ellipse class="cls-5" cx="141.7" cy="141.55" rx="122.79" ry="117.5"/><ellipse class="cls-6" cx="141.7" cy="141.97" rx="114.68" ry="110.02"/><path class="cls-7" d="M377.68,487.46c-1.16,3.05-2.37,6.33-2.41,8,5.05-5.05,7.56-17.24,7.56-17.24-9.93,11.78-12.2,19.41-12.09,20.46,4.76-4.19,4.8-7.6,6.94-11.21ZM263,512.15c-.41-1.34-2.22-3.7-3.93-5.89,2.68,2.38,3.51,5.16,8.57,7.31-.16-.89-3.87-6.51-15.17-13.5,0,0,5,9.3,10.53,12.08Zm14.51,6.22c-6.61-2.69-13.68-12.93-13.68-12.93,13.74,7,18.8,13.11,19.11,14.12-6-2-7.38-5.13-10.76-7.62,2.26,2.37,4.65,4.91,5.33,6.43Zm15.39,3.6c-1-1.46-3.93-3.71-6.67-5.79,3.87,2,5.92,5.05,12.24,6.16-.53-1-6.87-6.53-21.84-11.53,0,0,9.2,9.44,16.27,11.16ZM244.6,502c-1.51-1.46-4-3.46-5.33-4.88,1.39,1.06,3.86,3.51,4.93,3.16-.29-.87-1.91-4.68-11.89-10,0,0,5.71,9.85,12.29,11.69Zm34.14,18.63c-8.08,3-23.28-3.79-23.28-3.79,14.71-1.72,20,1.35,21.17,2.12-.66,1.24-5.46.36-7.82.23,2.65.6,7,.93,9.93,1.44Zm14.36,2.54c-.39,1.38-5.3,1.11-7.66,1.3,2.74.26,7.12,0,10.08.14-7.32,4.24-23.75-.78-23.75-.78,14.17-3.77,20-1.3,21.33-.66Zm-38.36-10.53c2.26.7,6.06,1.31,8.54,2-7.45,2-20-4.94-20-4.94,13.1-.4,17.4,2.62,18.31,3.36-.73,1-4.83-.09-6.89-.37Zm-10.57-7.23c2,1,5.34,2.06,7.5,3-7.26.7-17.47-7.35-17.47-7.35,12.18,1.55,15.56,4.89,16.26,5.69-.87.81-4.44-.78-6.29-1.34Zm3.94-5.29c1.25,2.17,2.57,4.49,2.74,5.76-4.68-3.1-7.93-12.08-7.93-12.08,9.58,7.64,12,13.07,12,13.84-4.37-2.47-4.71-5.08-6.84-7.52Zm118.28-3.27c-2.76,3.38-3.48,7-8.87,10.44.11-1.12,3.78-8.69,15.62-19.13,0,0-4.79,12.28-10.63,16.62.36-1.73,2.17-4.94,3.88-7.93ZM402.16,461c-.66,1.81-2.19,4.63-3,6.57,5.33-4.26,6.75-15.55,6.75-15.55-7.12,8.76-7.13,12.89-7.05,13.81,1.12-.09,2.43-3.32,3.3-4.83Zm-19.67,26.2c-.2-.87,1-7.5,8.71-18.34,0,0-1,10.52-5,15.23-.14-1.4.61-4.28,1.33-7-1.55,3.24-1.23,6.12-5.05,10.07Zm-6.21,8.48c.75-1.15,4.45-6.05,18.66-10.21,0,0-11.34,12.2-19.95,12.57,2.47-1.6,6.37-3.62,8.58-5.2-2.13,1-6.2,3.73-7.29,2.84Zm19.34-21.45c.32-1,2.14-5.41,12.75-11.59,0,0-6.27,11.41-13.23,13.59,1.63-1.71,4.32-4,5.74-5.68-1.48,1.22-4.15,4.09-5.26,3.68Zm-25.31,30c-2.42,1.3-6.55,2.79-9.23,4.06,8.41,1,21.57-10,21.57-10-14.52,2.06-19,6.62-19.89,7.71.89,1.12,5.31-1,7.55-1.79Zm17.46-19.84c1.06.65,4.41-2,6.2-3-1.81,1.53-5.07,3.57-7.1,5.13,7.63-1.07,16.45-12.34,16.45-12.34-12.22,4.74-15,9.2-15.55,10.24Zm7.14-10.77c3.11-4.68,2.59-14.22,2.59-14.22-5.84,10.78-6,16.73-5.67,17.44,3.06-4,2.35-6.51,3.36-9.59C394.88,469.68,394.58,472.33,394.91,473.56Z" transform="translate(-161.97 -278.86)"/><ellipse class="cls-8" cx="141.7" cy="134.56" rx="98.11" ry="98.98"/><path class="cls-9" d="M433.71,379.5c-1.62-9.45-4.64-12.61-12.22-14.88-18.66-5.57-53.95-11.3-109.31-.12-57.3,11.57-92.75,6.78-123,1.6-7.27-1.24-10.88,2.28-12.21,8.83-2.11,8.91-3.9,24.15-3.9,42.47,0,18.6,3,40.14,4.78,47.88a12.28,12.28,0,0,0,1.5,3.74,6.23,6.23,0,0,0,1.1,1.28c3.89,3.32,15.11,5.94,22.1,7.38,17.07,3.54,43.47,4.74,102-4.9,88.66-14.62,113.73,1.4,119.94,5.31a2.82,2.82,0,0,0,2.18.51,4,4,0,0,0,1.78-1.87c3.34-6,7.77-25.15,8.22-58.33A226.12,226.12,0,0,0,433.71,379.5Z" transform="translate(-161.97 -278.86)"/><path class="cls-7" d="M398.87,363.13a188.06,188.06,0,0,0-34.73-1.51c22.81.26,44.35,4.72,66.23,12C425.12,367.56,413,364.93,398.87,363.13Z" transform="translate(-161.97 -278.86)"/><path class="cls-10" d="M181,458.33c6.06,20.23,64.07,14.45,80.4,12.79C238.79,472.46,205.32,471.4,181,458.33Z" transform="translate(-161.97 -278.86)"/><path class="cls-10" d="M401.94,459.29c-12-.7-24.24,0-31.31,1.68,9.17,0,16.64.79,24.52,1.45,18.38,1.54,27.73,5.56,29.4,10.36C425.63,464.13,416.29,460.14,401.94,459.29Z" transform="translate(-161.97 -278.86)"/><path class="cls-11" d="M361.26,503.68Zm15-13.5a25.7,25.7,0,0,0,3.24-.47,21.52,21.52,0,0,1-2.24,1.47c-.85.51-1.73,1.26-2.41,1.73a27.88,27.88,0,0,0-6.72,7.31,42.6,42.6,0,0,1-5.22,6.28l0,0s-.49,1-.68,1.41c-.32-.61-1.41-2.67-1.52-2.89.05-.13.57-1.36.57-1.38a23.18,23.18,0,0,0,3.49-5.74,11.48,11.48,0,0,1,8.26-7.23Z" transform="translate(-161.97 -278.86)"/><path class="cls-12" d="M367.77,495.06a17,17,0,0,0-1.79,3,6.36,6.36,0,0,0-.73,1.51c0,.18.41-.64.89-1.35a11.89,11.89,0,0,1,3.15-3.54c1.38-.79.34-.12-.13.32-1.18,1.12-1.92,1.88-4.89,7l-.94,1.18.16.26s4-5.55,5.27-6.83,4.65-4.66,6.6-5.47c0,0-6.25,5.08-9.22,9.56l-2.49,3.74.57,1.05s2.92-4.32,6.46-9.2a20,20,0,0,1,7.07-5.81S370.94,491,367.77,495.06Z" transform="translate(-161.97 -278.86)"/><path class="cls-11" d="M373.46,483.54a23.44,23.44,0,0,1-4.85,2.26,9.18,9.18,0,0,0,1.22-7.55,6.59,6.59,0,0,1,1.21-6.93c-6,.19-10.43,4.85-10.43,4.85a4.56,4.56,0,0,1-1.1-2.1c-.19-1-.3-2.07-.3-2.07a14.4,14.4,0,0,0-6.95,5.42c-2.24,3.2-3.45,6.75-2.91,9.73a8.16,8.16,0,0,0,2,4l.07.08,0,.48s-.21.41-.26.53l.23.21a1.93,1.93,0,0,1,1.89-.18l1.13.48c2.23,1,8.13,3.8,12.28.57a19.35,19.35,0,0,0,6.67-8.81C373.54,484.15,373.69,483.67,373.46,483.54Z" transform="translate(-161.97 -278.86)"/><path class="cls-12" d="M371.44,485.5s-2.09.76-2.64.87-1.49.67-.48-1.1a8.64,8.64,0,0,0,.69-7.54,6.19,6.19,0,0,1,.37-4.79,7.84,7.84,0,0,1,.71-1.12c-.45.11-.55.1-.91.2a19.21,19.21,0,0,0-8.44,5,4.39,4.39,0,0,1-1.78-3.05c-.06-.39-.13-.9-.16-1.22a7.16,7.16,0,0,0-.9.39,15.86,15.86,0,0,0-7.47,9.08s-2.13,5,1.3,8.32c0,0,7.95,5.91,13.42,3.21,3.18-1.58,5.17-4.42,7-7.56a8.86,8.86,0,0,0,.56-1.38A6.44,6.44,0,0,1,371.44,485.5Z" transform="translate(-161.97 -278.86)"/><path class="cls-13" d="M371.69,485.51s-2.64,1-3.36,1.24-1.42-.05-.53-1.86a7.82,7.82,0,0,0,.7-7.18,7.72,7.72,0,0,1,0-2.16,15.26,15.26,0,0,0-2.4,4.95,14.41,14.41,0,0,1-3.28,4.61c-1.14,1.13-1,1.87.49.47a5.85,5.85,0,0,1,2.51-1.36c1-.22,1.05.07,0,.51-2.14.9-2.54,2-3.85,3.28s-4.08,1.85-4.75,2.55.48,1,1.11.89,4.83-.75,4.83-.75,2.08-.24,1,.43-5.62,3.53-7.46.86l-2.45-.71,1.82-2,2.33-1.48c6-4.68,6.42-8.22,6.42-8.22-2.93,5-4.79,6.22-4.79,6.22a19.21,19.21,0,0,0-.08-3.7c-.24-1-1.55-3.08-1.83-1.46s-1.61,1.62-1.55,1.4.35-5.35-.82-7.37a16.25,16.25,0,0,0-5.08,7.45s-2.06,5,1.35,8.23a22.47,22.47,0,0,0,2,1.23h0c2.7,1.54,7.29,3.47,11,1.61,3.14-1.58,5.3-4.14,7.2-7.31C372.13,485.85,372.86,484.79,371.69,485.51Z" transform="translate(-161.97 -278.86)"/><path class="cls-11" d="M312,484.64c-1.28-1-1.89.16-2,.88,0,0-3.79-2.64-5.35-1.58a2.41,2.41,0,0,0-.69,1.64,10.13,10.13,0,0,0-4.09-1.84.76.76,0,0,0-.69.25c-1.26,1.41-.4,4.29.23,5.1,0,0-2.55-1.14-3.22-.57-.91.77-.16,4.2,1.2,5.8,0,0-1.93-.21-2.06.61a5.44,5.44,0,0,0,1.89,3.73l.47,1.14s-1.34-.07-1.49.4.1,1.56,2.09,2.59,6.22,2.83,6.22,2.83l5.35,1.16,3.7-2.63s3.84-3.45,3.94-10.8C317.51,493.35,317.45,488.88,312,484.64Z" transform="translate(-161.97 -278.86)"/><path class="cls-12" d="M299.3,494.85l-.05-.5a5,5,0,0,1-1-2.12c-.14-1.4.67,0,.67,0l1.15,2.42a.67.67,0,0,0,.83.1,12.82,12.82,0,0,1,0-4,6.61,6.61,0,0,0-2.8-1.45c-1.41-.16-1.68-.1-1.65,1.09.06,1.74,1.81,4.35,1.81,4.35l1.08.14Zm-1,2.35s-1-1.09-.33.42c0,0,.95,2,2.48,2.19l.11.26-.48.47s-3.66-2.51-4-4.93c0,0-.27-.77,1-.57,1.48.22,2.47-.1,3.83.85a6.27,6.27,0,0,0-.26,3.55l-.74-.23s-1.29-1.51-1.59-2Zm9.66,5.93-1.41.85c1.78,2.78,3.71,2.21,3.71,2.21a10.15,10.15,0,0,0-.05-2.45,2.94,2.94,0,0,1-2.25-.61Zm8-12.42c1.14,2,.39,2.75.39,2.75L314.1,497c-.47.65-.52.23-.52.23a1.93,1.93,0,0,0-.74-1.73c-.95-.9-.58.11-.58.11a7,7,0,0,1,.77,2.65c0,.27,0,.73,0,1s.37,1.11-.94,3.15c0,0-3.5,2.42-5.54-1.38-.23-1.61-.32-3.73.61-4.07s1.54.62,2.69,1,.58-.45.58-.45-1.54-.93-1.9-1.2c-.61-.47-.75-1.62-.57-3.05.3-2.45,1.48-2.33,1.48-2.33,1.09,0,2.94,1.82,3,1.87s1.41.85.46-.3a9.53,9.53,0,0,0-2-1.81,10.33,10.33,0,0,0,.11-3.82c-.31-2.45.95-1.39.95-1.39,2.09,1.29,4,5.24,4,5.24Zm-9.85,5.88s-.76,3.31-.31,4.25-.91,0-.91,0l-1.69-2.87s-.85-1.07-.52.25a5.34,5.34,0,0,0,1.33,2.33c.1.08-.11.34-.11.34s1.81.76,2.26,1.92c0,0,.16.76-.08.94a10.62,10.62,0,0,0-4.84-3.55A8.26,8.26,0,0,1,301,497c.15-.42.18-1.46,1.77-1.19a7,7,0,0,0,1.87.2s.38-.16-.65-.4-2-.36-2-.36-1.08-.81-.72-3.67c.31-2.38,1.08-1.51,2.42-1.11.32.1,1,.27,1,.27s.72-.12-1-.66-2.26-2.56-2.47-3.15c0,0-.18-.4-.25-.6s-.27-.27-.11.92a7.31,7.31,0,0,0,.51,1.94l-.23.75-.69-.16s-1.53-2.57-1.21-4.22c.25-1.31.68-1.2,1.6-1a11.27,11.27,0,0,1,3.11,1.54L303.9,488s.45,1.18.63,0c.14-.86.12-1.41.19-2,.11-.93-.12-2.26,2.52-1.42,2.37.76,2.89,1.62,3.2,2s0,3.58,0,3.58l-.32.32-1-.27a17.07,17.07,0,0,0-1.28-1.51c-.37-.32-1.58-1-.32.57.35.35.83,1,.83,1l0,.28a5,5,0,0,0-.6.81,6.33,6.33,0,0,0-.53,3.52l.17.37-.14,1.12-.54.07a22.19,22.19,0,0,0-2-2.95s-.87-.67-.27.5a10.86,10.86,0,0,0,1.44,2.28Z" transform="translate(-161.97 -278.86)"/><path class="cls-13" d="M298.86,494.73l-.75-2.49c-.17-1.41.72-.08.72-.08l1.12,2.5a.67.67,0,0,0,.84.1,8.94,8.94,0,0,1-.3-4.31,5.21,5.21,0,0,0-2.58-1.21c-1.43-.15-1.71-.09-1.66,1.12.08,1.75,2,4.32,2,4.32l.63.05Zm9.17,8.43-1.41.88c1.82,2.79,3.77,2.19,3.77,2.19a2,2,0,0,0,0-.26c-.09-.61-.25-1.49-.37-2.2a2.94,2.94,0,0,1-2-.61Zm-9.78-6s-1-1.08-.33.43c0,0,1,2,2.53,2.2l.11.26-.48.48s-3.73-2.51-4.13-4.95c0,0-.25-.69,1.07-.65a13,13,0,0,1,3.83.85,6.52,6.52,0,0,0-.22,3.63l-.75-.23s-1.33-1.52-1.63-2Zm12.94-11.89a2.35,2.35,0,0,0-.16,1.49l0,.39.95-1.44-.82-.44Zm-4.7,14.88c-.08-1.06,0-3.47,1.24-3a10.21,10.21,0,0,1,1.46.78c-1.73,2.06-.1,4.78,0,5.1a3.6,3.6,0,0,1-2.55-2.1c0-.26-.08-.54-.11-.82Zm.66-15.62c2.4.74,2.88,1.47,3,2,.08.33.08,2.06.08,2.06L308,486.42c-3.47-3-3.55,1.45-3,3.24.31,1.07,1.68,2.22,1.12,1.92s-2.29-1-2.77-.49-.23,3.8.9,4.27c.94.38,1,.83,1,.83s-.38.31-1.29-.06c-.15.93.7,2.12,1.54,3.07a5.53,5.53,0,0,1,1.12,1.24c.46.95-1.76.39-1.76.39l-1.73-2.89s-.88-1.07-.53.26a5.47,5.47,0,0,0,1.37,2.35c.1.08-.11.34-.11.34s1.84.75,2.31,1.92c0,0,.16.77-.07,1a9.68,9.68,0,0,0-4.77-3.59,10.56,10.56,0,0,1-.27-3.08c.06-.45,0-1.55,1.63-1.29a7.33,7.33,0,0,0,1.9.19s.37-.17-.67-.4-2-.34-2-.34-1.1-.81-.76-3.71c.28-2.41,1.08-1.55,2.44-1.15.32.1,1,.27,1,.27s.72-.13-1-.66-2.31-2.55-2.56-3.17a2.5,2.5,0,0,0-.12-.47c-.09-.26-.31-.35-.14.86a8.51,8.51,0,0,0,.46,1.9l-.12.81-.68-.15s-1.69-2.64-1.39-4.32c.25-1.32.68-1.22,1.61-1a8.5,8.5,0,0,1,2.77,1.35l.4,2.13s.45,1.17.54-.06c.07-.89.1-1.44.17-2C304.72,484.91,304.47,483.75,307.15,484.58Z" transform="translate(-161.97 -278.86)"/><path class="cls-11" d="M320.62,515.3l-2.3-1.71-2.81-2.76-.24-.23.23-.25a.37.37,0,0,0,.13-.31c-.06-.37-.46-.79-1.26-1.64l-.81-.86-.81-.89a27.23,27.23,0,0,0-3.9-3.71c-8.14-6.38-21.36-6-21.5-5.95a20.06,20.06,0,0,0-2.7.3c.17.1,2.27.89,2.27.89,1,.46,8.38,2.34,15,7.69l.84.48.82.77c8.09,6.63,14.12,11.43,15.42,12.57a.34.34,0,0,0,.55-.08l.88-1.79,0-.21-.11-.19-.65-.59.38-.54.17.06a.33.33,0,0,0,.22-.16l.26-.45,0-.22A.36.36,0,0,0,320.62,515.3Z" transform="translate(-161.97 -278.86)"/><path class="cls-12" d="M320.16,516l.26-.45-2.34-1.74c-7.76-7.75-9.55-8.86-12.37-10.47-1.1-.63-3.49-1.54-.37-.5,3.37,1.13,7.07,4.62,7.7,5.19,1.2,1.08,2.32,2.34,2.27,2s-.8-1-2-2.32a31.67,31.67,0,0,0-4.66-4.56c-7.87-6.06-22.34-5.74-22.34-5.74,2.67.72,10.61,3.28,16.61,8.2,8.89,7.29,16.31,13.79,16.31,13.79l.88-1.79L313.78,512c-7.61-6.74-20.2-13.11-20.2-13.11,4.69.93,10.49,5.1,13.46,6.95S320.16,516,320.16,516Z" transform="translate(-161.97 -278.86)"/><path class="cls-11" d="M322,511.94l-.23-1.17c-.07-.42-.16-.93-.27-1.49-.68-3.53-2.17-9.4-7-11.51-6.42-2.82-12.72-3.71-14.35-3.55-.39,0-.5.24,0,.52a39.59,39.59,0,0,1,5.09,4.38l.62.63-.88-.13a12.37,12.37,0,0,0-7.75,1.79l-1.24.9c-2.12,1.6-4,2.85-9.1,2.87-.45-.06-.52.21-.4.4,1,1.48,4.7,6,13,7.95l.29.07-.06.3a7,7,0,0,1-3.09,3.49c-.77.4-1.43.74-1.41,1s.15.29.45.46A25.93,25.93,0,0,0,307,522.62c6.16.5,13.35-1.36,15.08-8l0-.1.36-.28.15,0,.55,0c0-.11,0-.29.06-.4C323,513.65,322.36,513.33,322,511.94Z" transform="translate(-161.97 -278.86)"/><path class="cls-12" d="M315.85,499.49A27.44,27.44,0,0,0,303.2,495s-1.71-.28-2.07-.27c.3.2,1,.81,1.54,1.23,0,0,2.87,2.52,3.55,3.18s1.63,1.41-.9,1a10.75,10.75,0,0,0-9.31,3.13,10.24,10.24,0,0,1-6.43,2.34c-1,0-1.58,0-1.89,0a6.92,6.92,0,0,0,.93,1s4,4.29,12,6.45a5.5,5.5,0,0,1-2.5,4,6.79,6.79,0,0,1-1.51.78c-.79.35,0,.52.41.74,1.07.51,8.24,4.42,16.34,2.34,0,0,6.37-1.06,7.4-6.51C320.75,514.46,321.46,503.58,315.85,499.49Z" transform="translate(-161.97 -278.86)"/><path class="cls-13" d="M314.78,513.51v-.09h0c-.14-3.51-1-9.48-4.84-12.33a25.89,25.89,0,0,0-12.26-4.41s-2-.28-.53.95c0,0,2.52,2.42,3.19,3.09s1.62,1.41-.9,1a10.71,10.71,0,0,0-9.29,3.1,7.8,7.8,0,0,1-2.39,1.49,24,24,0,0,0,7.79,0c2.36-.31,6,.7,7.31,1.13,1.91.63,2.6.08.21-.77a8.22,8.22,0,0,1-3.06-2c-.83-.91-.57-1.17.56-.27,2.32,1.84,3.71,1.71,5.86,2.43s4.29,3.27,5.36,3.59.68-1,.19-1.6-3.55-4.54-3.55-4.54-1.47-2-.14-1.2,6.58,4,5.17,7.15l.8,3h0l-2.91-.74-2.85-1.61c-10.23-2.28-16.26-1.76-16.26-1.76,10.59,1,11.85,3,11.85,3s.18.45-1.07.49-1.14.43-1.23.61.13.72-.16,1-1.06,2,.94,1.28,1.27.65,1,.72-6.35,2.89-8.05,5.63a21.19,21.19,0,0,0,11.85.74s6.35-1,7.39-6.49c0,0,.05-.71,0-1.83h0s0-.08,0-.11,0-.24,0-.36S314.79,513.61,314.78,513.51Z" transform="translate(-161.97 -278.86)"/><path class="cls-11" d="M313.05,501.94c-.5-.38-1-.76-1.59-1.12-2.52-1.62-1.8-1,.06.46.37.29,1,.79,1.7,1.45Z" transform="translate(-161.97 -278.86)"/><path class="cls-11" d="M315,510a25.42,25.42,0,0,0-6.52-1.34c-4.38-.32-1.81.18-.77.3a23.32,23.32,0,0,1,7.62,2.34Z" transform="translate(-161.97 -278.86)"/><path class="cls-14" d="M361.64,486.1l-.13.15a1.34,1.34,0,0,0,.13-.15Zm3.21-6.28c.47-.88,1.45-3.35-.09.51a17,17,0,0,1-3.12,5.77c.11-.18-2.77,2.73-2.77,2.73-.15-.69-.91-.8-1.13-1.22s-.81-1,.4-2.35.11-5.12,0-5.72c-.29-1.25-.89-3.7.53-.08,1.34,3.45,1,4.6.76,5.57-.37,1.32.09,1.28.58.82A18.26,18.26,0,0,0,364.85,479.82Z" transform="translate(-161.97 -278.86)"/><path class="cls-11" d="M361.64,486.1l-.13.15a1.34,1.34,0,0,0,.13-.15Zm3.21-6.28c.47-.88,1.45-3.35-.09.51a17,17,0,0,1-3.12,5.77c.11-.18-2.77,2.73-2.77,2.73-.15-.69-.91-.8-1.13-1.22s-.81-1,.4-2.35.11-5.12,0-5.72c-.29-1.25-.89-3.7.53-.08,1.34,3.45,1,4.6.76,5.57-.37,1.32.09,1.28.58.82A18.26,18.26,0,0,0,364.85,479.82Z" transform="translate(-161.97 -278.86)"/><path class="cls-11" d="M373,494.6a8.22,8.22,0,0,1-1.55-.26,14.2,14.2,0,0,0,1.69-4.22c.55-2.43-2.39-1.95-2.39-1.95l-3.76.49c.44-1.69-.58-2.18-.58-2.18-1.68-1-6.36.12-6.36.12,0-1.72-.94-1.51-.94-1.51-5.77,1.29-9,6.7-9,6.7l-.31.3c-4,2.73-4.3,5.84-4.3,5.84-1.69-3-1.71-.56-1.86.32s-1.1,4.48-1.33,4.3-1-.32-1.83-.63-1.22-.17-.94.56a7.84,7.84,0,0,1,.08,2.46c-.46,1,3.53,2.25,3.53,2.25a17.75,17.75,0,0,1,5.12,0c3.52.91,4,7.34,4,7.34l.62-.06a71.18,71.18,0,0,0,6.05-5.3c.51,2.65,4.09,1.47,4.09,1.47.65-.16,3.8-1.47,3.8-1.47,1.62-.68.94-1.7.94-1.7a25,25,0,0,0,3.72-2.28c2.23-2,2.2-3.17,2.11-3.59s-1.79-.77-1.79-.77a20.45,20.45,0,0,0,3-4C376,494.73,373,494.6,373,494.6Z" transform="translate(-161.97 -278.86)"/><path class="cls-12" d="M345.43,499.54c-1.31-3-1.7-.38-1.7-.38a20.13,20.13,0,0,1-1,3.49c-.35,1.29.92.93.92.93l.49-1.63c.44-1.47.74-.56.74-.56a9.64,9.64,0,0,1-.81,4.1c-.33,2.28,1.73,1.17,1.73,1.17,1.25-1.18.69-3.81.69-3.81a11.61,11.61,0,0,0-1-3.31Zm5.8-5.56.72-.11s.63-3.38-.12-3.47c0,0-1.31,1.63-1.22,1.91a7.75,7.75,0,0,1,.62,1.67Zm7-2.6a7.72,7.72,0,0,0-5.83,2.35l.43-4.06a38.05,38.05,0,0,1,3.43-2.74c1.35-.81,2.36-1.22,2.57-.6a7.16,7.16,0,0,1-.6,5.05Zm-11.45,6.87-.41,1.27s-.71-1.08-.76-1.24a9.12,9.12,0,0,1,3.61-4.73c.48-.3.5-.85,1-.71,0,0,1.61.89.32,5.31a11.44,11.44,0,0,0-2.65.89s-1.05.35,0-1.41a21.21,21.21,0,0,1,1.36-1.69s1-1.18-.45-.53c0,0-1.2.35-2,2.84Zm12.22.94-.77.19s.67-2.18-1.14-2.45c-2.17-.32-5.9,3.43-5.24,1.37a41.74,41.74,0,0,0,4.88-3.31c.34-.22.45-.34.26-.66s-.4-.14-.89.18c-1.5,1-3.89,3.13-4.63,2.94-.46-.12.21-2.87.92-3.34,2.58-1.69,7.83-3.56,8.26.26.26,2.36-1.49,4.52-1.65,4.82Zm14.49-3.39c-.61-.5-1.95-.74-4.87.11h0a13.69,13.69,0,0,1-1.89,4.9,12.11,12.11,0,0,0,1.55-.59h0l.05-.06,0,0,.1-.1,0-.05.05,0c.48-.47,1.47-1.38,1.89-1.76a4.68,4.68,0,0,1,.71-.51c.1,0,.14.1,0,.45a15.15,15.15,0,0,1-1.91,2.26l-.1.54,1.17.25s1.8-1.76,2.87-3.1h0a.94.94,0,0,1,.09-.12l.16-.22a1.13,1.13,0,0,0,.1-.13l.16-.24,0-.09a2.67,2.67,0,0,0,.12-.24s0,0,0-.05a.39.39,0,0,0,.05-.22,1.28,1.28,0,0,0-.46-1Zm-3,5.92a30.45,30.45,0,0,0-3.39.45s-.05.31-.13.73l-.06.29v.05c-.09.41-.2.88-.32,1.28h0a3.71,3.71,0,0,1-.27.67v0a.78.78,0,0,1-.14.19h0l1.11-.15,2.89-1.86s.51-.25.34.14l-.12.21a29.69,29.69,0,0,1-3.36,2.57l-.3.66h0l.6.22s3.64-2,4.69-3.34,1-2.39-1.52-2.14Zm-7.61,4.5.3-.3,1.78.19a13.62,13.62,0,0,0,1.45-4s.07-1.19-1.53-1.51l-1.84-.25.3-.51,2.57.4a10.79,10.79,0,0,0,1.85-4c.16-1.73-1.3-1.82-2.65-1.92a8.46,8.46,0,0,0,1.51-.41h0l.43-.17h0l.47-.22h0l.44-.24.11-.07.33-.22.13-.1.28-.23.13-.12.26-.27a.69.69,0,0,0,.11-.13,3,3,0,0,0,.25-.34.86.86,0,0,0,.07-.1,4.74,4.74,0,0,0,.26-.5s1-1,.16.73c0,0-.25.41-.57.86a5.26,5.26,0,0,1-.89,1.07.53.53,0,0,0-.21.35,1.5,1.5,0,0,0,.22.87l2-.43a10.61,10.61,0,0,0,1.16-2.37,9.72,9.72,0,0,0,.47-1.86c.35-2.34-4.58-1.18-4.58-1.18l-.29,0h0l-.67.05a11.73,11.73,0,0,1-2.3,4.7c-.21.21-1.89,1.95-.15-.65a12.9,12.9,0,0,0,2.07-4.91c.73-2.66-6.29-1.11-6.29-1.11a8.25,8.25,0,0,1-1.29,4.1,3.14,3.14,0,0,1,1.31.46c.35.32,1.41-1.06,1.41-1.06s.82-.39.61.44l-1.31,1.35s1.73,1.94-1.06,6.44c0,0,.68.2.82.63l3.13-2.38s1.24-.47.27.66c0,0-2.62,2.22-2.77,2.25s-.2.81-.2.81a8.39,8.39,0,0,1-.71,3.9l1,.32,3-2.81s.88-.45.56.38c0,0-2.58,2.59-2.75,2.69l.11.31-.12.4a5.5,5.5,0,0,0-2.91.63l-.47.5.46,1.53,1.86-.07s3-1,3.26-.81c0,0,1.08.05-.48.77l-1.52.68.05.55.45.28,3.34-1.22s1.86-.67.08-1.79l-3.37-1Zm-3.63-.9a10.06,10.06,0,0,0,.89-3.78c.18-2.25-1.56-1.42-1.56-1.42s-2,.8-1.26-.17.88-1.87,0-2.28-3.28,1-3.82,1.18-1.24.36-.88,1.15a6.82,6.82,0,0,1,.18,2.59l-.55.29s.05-1.8,0-2,0-2-1.75-1.72a11.94,11.94,0,0,0-3.86,1.56,19.37,19.37,0,0,1,.72,2.65c.3-.87,2.55-2.47,2.55-2.47,1-.46.77.38.77.38a9.94,9.94,0,0,0-3.09,3l-.1,1.18.59.39c1.34-1.54,4.35-1.51,4.35-1.51l1-.91a5.64,5.64,0,0,1,1.39-1.71c1.45-.8.78.24.78.24a9.62,9.62,0,0,0-2.43,2.78l0,.58a2.39,2.39,0,0,1,.52,2.05c-.31,1.15-.73,2.56-.73,2.56l-.62-.44.37-1.56c-.08-.35.74-1.77-.24-2.5s-3.17.52-3.17.52c-1.63.49-.57.82-.57.82,2.06.6,3.66,4.69,3.66,4.69.31,2.17,1.29,1.25,1.29,1.25a18.6,18.6,0,0,0,4.77-4.23l-.36-1.31S359,505.78,359.23,505.32Z" transform="translate(-161.97 -278.86)"/><path class="cls-13" d="M359.15,499.05c.44-1,1.49-2.57,1.44-4.28,0-1.26-.39-2.06-1.38-2.37.91,1.66-1.33,4.61-1.33,4.61a3.6,3.6,0,0,1,1.27,2Zm7.23-5.12a6.08,6.08,0,0,0,3.37-2.63s.5-.66.22.59a6.4,6.4,0,0,1-1.58,2.08c-.51.37,0,1.22,0,1.22l2-.45a10.38,10.38,0,0,0,1.73-4.29c.33-2.34-4.35-1.13-4.35-1.13l-1,.07c.54.89-1.43,3.09-.41,4.54Zm-8.21-2.62a8.19,8.19,0,0,0,.8-2.77c.2-1.52-.15-2.84-.91-2.26.62.83-3.13,5.55-3.13,5.55a5.75,5.75,0,0,1,3.24-.52ZM365.44,507l.87.24s.88.75.69.85-3.58.9-3.58.9l.49-.25c1.52-.73.47-.77.47-.77a16.09,16.09,0,0,0-3.17.83l-1.95.15-.47-1.51.45-.5a6.2,6.2,0,0,1,3-.72l.11-.39-.12-.31c.16-.09,2.65-2.67,2.65-2.67.31-.83-.54-.38-.54-.38l-2.94,2.79-1.35-.38a9.67,9.67,0,0,0,.86-3.7s0-.45.14-.54c.36-.27,2.85-2.59,2.85-2.59.94-1.12-.26-.65-.26-.65l-3,2.55a2.7,2.7,0,0,0-.64-.79,11.28,11.28,0,0,0,1.4-5.14,3.85,3.85,0,0,0-.54-1.33l.38-.35a9.54,9.54,0,0,0,4.62-4.9,1.13,1.13,0,0,1,.36.39,1.75,1.75,0,0,1,.07,1.18,16.79,16.79,0,0,1-2.11,4.49c-1.52,2.7,0,.82.16.62,1,.17,2.5,3.25.17,5.7l-1.16.07-.2.48,1.71.29.53.14c1.94.72.59,2.8-.82,5.27l-1.16,0-.44.13,2.5.77Zm-6.24-1.8c.1.5-1.64,1-1.64,1l.89,2.19a21.8,21.8,0,0,1-3.58,3.54,13.93,13.93,0,0,0-1.14-5.12,1.28,1.28,0,0,1,1-.73l2.5-.93s.93-1.07-1.1-.26a21.43,21.43,0,0,0-2.39,1.09l-.65-.71,0-.58a22.26,22.26,0,0,1,2.49-2.65s.57-1.05-.88-.23a4.42,4.42,0,0,0-1.37,1.56l-1,.92s-3,0-4.34,1.55l-.54-.35,0-.2.09-1a9.94,9.94,0,0,1,3.06-3s.25-.85-.77-.37c0,0-2.24,1.61-2.53,2.48,0,0-.2-.88-.41-1.65.31-.26,3-2.42,4.45-1.42l.69,2.38.72-.17a10.81,10.81,0,0,0,0-1.72l-.11-.81s3.55-2.91,4.83-2.07c0,0,.93.52-.27,2-.78,1,1.3.16,1.3.16s1.89-.64,1.56,1.6a9.18,9.18,0,0,1-.64,2.47v.37s-.3.15-.2.64Zm9.52-9.15a13.74,13.74,0,0,1-1.72,4.63,7.91,7.91,0,0,0,1.28-.53c0-.07,1.16-1.14,1.84-1.78,1.37-1.39,3.32-1.83,3.08-.38a2.81,2.81,0,0,0,.7-1.34c0-.83-1.54-1.79-5.18-.6Zm-1.57,6.23a8.6,8.6,0,0,1-.85,2.92l1.11-.17,2.88-1.88s.66-.34.22.35a29.55,29.55,0,0,1-3.34,2.6l-.3.66.47.17c4-2.57,4.36-3.89,4.21-4.68S368.12,502.07,367.15,502.23Z" transform="translate(-161.97 -278.86)"/><path class="cls-11" d="M328.64,516.53a3.79,3.79,0,0,0-1.35-1.5,5,5,0,0,0-.27-.63c-.82-1.56-2.63-2.41-5.37-2.51-.71,0-1.12,1.71-2,1.81-11.56,1.38-37.07,10.48-38,11.19-.26.2,0,.42.07.47,2.79,2.31,3.84,3.12,5.44,4.26,0,0,3.68,3,3.74,3,14.22-3.72,33.5-7.16,34.35-7.27.06,0,1.59-.92,1.59-.92C327,524.21,330.12,519.61,328.64,516.53Z" transform="translate(-161.97 -278.86)"/><path class="cls-11" d="M322.29,512.57c-5.5-.41-19.4,4.35-22.68,6-2.36,1.17-2.72,5.9,1.85,9.34,13-4,22.86-2.74,22.86-2.74l1.21-2.2S332.31,513.31,322.29,512.57Z" transform="translate(-161.97 -278.86)"/><path class="cls-12" d="M321.92,513c-10-.39-40.11,12.44-40.11,12.44,4.48,3.72,4.38,3.65,8.95,7.09,13-4,33.45-7.27,33.45-7.27l1.21-2.19S332,513.37,321.92,513Z" transform="translate(-161.97 -278.86)"/><path class="cls-11" d="M320,517.14c-13.13,3.05-11.19,6.91-11.19,6.91a35.86,35.86,0,0,0,3.9,8.5l9.33-1.9,2.82-4-.84-5.34S333.3,514,320,517.14Z" transform="translate(-161.97 -278.86)"/><path class="cls-15" d="M331.31,465.58c-13.72.9-26.5,2.2-26.43,2.78l14,57.23c.16,1.48,7.82,2.17,17.09,1.54s16.95-5.22,16.83-5.49l5-56.69a.07.07,0,0,0,0-.06C357.81,464.31,345,464.68,331.31,465.58Z" transform="translate(-161.97 -278.86)"/><polygon class="cls-16" points="170.62 196.04 172.29 239.26 180.93 237.76 182.96 198.04 170.62 196.04"/><polygon class="cls-7" points="155.06 208.26 162.29 247.36 168.1 247.58 162.03 201.28 155.06 208.26"/><polygon class="cls-7" points="188.87 196.08 186.81 236.09 188.43 235.94 191.07 195.99 188.87 196.08"/><polygon class="cls-17" points="184.8 197.48 182.32 237.51 184.41 237.34 188.62 197.28 184.8 197.48"/><path class="cls-15" d="M331.31,465.58c-13.72.9-26.5,2.2-26.43,2.78l14,57.23c.16,1.48,7.82,2.17,17.09,1.54s16.62-4.86,16.83-5.49l5-56.69a.07.07,0,0,0,0-.06c0-.58-12.82-.21-26.52.69Zm21,45.39a5.2,5.2,0,0,1-1.06,2.52c-.7,1.19-7.62,2.55-16.11,3.12s-15.57.16-16.45-.92c0,0-.85-.21-1.43-2.36-3.56-13.27-6.2-25.54-8-32.13,0,0,33.12-6.17,28.55-5.79l-.38,0,.38,0c11.58-1.17,17.93,2.69,17.93,2.69C355,484.85,354,497.37,352.34,511Z" transform="translate(-161.97 -278.86)"/><path class="cls-18" d="M335.17,516.61c-8.5.58-15.57.16-16.45-.92,0,0-.85-.21-1.43-2.36-3.56-13.27-6.2-25.54-8-32.13,0,0,29-5.41,29-5.78h0a1.19,1.19,0,0,0-.43,0l-.38,0,.38,0,.44,0,.44-10.24c-2.4.13-4.9.27-7.43.44-13.72.9-26.5,2.2-26.43,2.78l14,57.23c.16,1.48,7.82,2.17,17.09,1.54h.11l.46-10.61Z" transform="translate(-161.97 -278.86)"/><path class="cls-7" d="M331.32,465.72c-13.72.9-26.5,2.21-26.43,2.78L308,481.06c3.59-.7,13.06-1.64,24.19-2.35,11.35-.72,21-1,24.51-.74l1.14-12.88s0,0,0-.06C357.82,464.46,345,464.83,331.32,465.72Z" transform="translate(-161.97 -278.86)"/><path class="cls-19" d="M356.5,462.71c-.84-.76.44-3.94-6.12-4.6-2.05-.2-3.24-.74-6.3-2.49a14.87,14.87,0,0,0-8.57-.85c-3.08.8-7.05-1.57-14.58,2.2-3.44,1.73-5.9,0-11,3.9-7.28,5.57-4.54,13.52-3.43,15.91a34.85,34.85,0,0,1,2,6.68,19.15,19.15,0,0,0,2.78,5.2,24.58,24.58,0,0,1,2.84,6.68,5,5,0,0,0,3.83,3.86c1.95.42,6.2-.27,6.84-4.68.55-3.79-.92-5-.3-8.73.26-1.62,1-3.06,2.95-5.2,1.19-1.34,2.63-3,2.93-4.87.53-3.26,1.1-6.53,3.69-7.92,2.91-1.56,5.85-.52,8-1.19,7.22-2.3,10-1.36,11.07-.8,1.72.91,2.49-2.55,3.76-.74C356.8,465.07,359.45,465.37,356.5,462.71Z" transform="translate(-161.97 -278.86)"/><path class="cls-7" d="M357.06,462.22c-.85-.76-.81-3.82-7.37-4.48-2.05-.21-3.24-.75-6.3-2.5a15,15,0,0,0-8.58-.85c-3.08.8-7.05-1.57-14.57,2.21-3.44,1.72-5.91,0-11,3.89-7.28,5.57-4.54,13.52-3.43,15.91a34.81,34.81,0,0,1,1.95,6.68,18.94,18.94,0,0,0,2.79,5.21,24.93,24.93,0,0,1,2.84,6.68,5,5,0,0,0,3.83,3.85c1.94.43,6.19-.27,6.84-4.68.55-3.79-.92-5-.31-8.73.27-1.62,1-3.05,3-5.2,1.19-1.34,2.63-3,2.93-4.86.53-3.27,1.09-6.54,3.68-7.93,2.91-1.56,5.86-.52,8-1.19,7.21-2.3,10-1.36,11.07-.8,1.71.91,3.88-.77,5.15,1C357.5,466.47,360,464.88,357.06,462.22Z" transform="translate(-161.97 -278.86)"/><path class="cls-20" d="M323.06,494a11.1,11.1,0,0,0-.16-4,12.58,12.58,0,0,1-.14-4.7c.3-1.84,1.19-3.43,3.17-5.65,1-1.09,2.45-2.75,2.72-4.41.53-3.26,1.13-7,4.14-8.57a10.77,10.77,0,0,1,5.53-1,8.7,8.7,0,0,0,2.57-.22c5.45-1.74,9.4-2,11.75-.74a3.27,3.27,0,0,0,1.84.12,6.85,6.85,0,0,1,1.58,0,1.48,1.48,0,0,0-1.67-.55c-1.07.25-1.24-.28-2.22-.4s-1-1.52-4.63-.84c-1.89.35-1.93-1.52-5.3.34-3.62,2-5.86.22-9.26.64-8.5,1-8.23,5.53-7.51,9.5.44,2.45.08,4.77-2.52,6.36-3.86,2.36-3.57,5.93-2.36,8.36s1.88,7.52-3.17,8.54a4.74,4.74,0,0,1-3.93-1.35,6.25,6.25,0,0,0,1.15,2.06,4.25,4.25,0,0,0,2.12,1.07C321.82,499.14,322.86,495.33,323.06,494Z" transform="translate(-161.97 -278.86)"/><path class="cls-7" d="M352,515.24c-.2-.47-.5-.26-.5-.26-.71,1.12-7.71,2.44-16.29,3s-15.72.22-16.6-.8c0,0-.33-.17-.45.32a4.9,4.9,0,0,0,.2,1.64l1.15,5.09c.42,1.51,7.44,1.86,16.27,1.26s15.79-2.92,15.89-4.47l.38-4.15A4.91,4.91,0,0,0,352,515.24Z" transform="translate(-161.97 -278.86)"/><path class="cls-21" d="M337.38,495.13c.46-.05.85-.31,1.21-1.36a2,2,0,0,0-.6-1.63,1.7,1.7,0,0,1,.27,1.2c-.35,1.05-.74,1.31-1.21,1.36a1.76,1.76,0,0,1-1.28-.39,1.57,1.57,0,0,0,1.61.82Zm-6.11-11a1.48,1.48,0,0,0,1.7.77,1.87,1.87,0,0,0,1-1.35,2.85,2.85,0,0,0-.8-1.76,2.41,2.41,0,0,1,.47,1.31,1.87,1.87,0,0,1-1,1.35,1.47,1.47,0,0,1-1.37-.32Zm-3.4,14.57c.62,1,1.09.63,1.33.3a2.86,2.86,0,0,0,.13-2.68,1.65,1.65,0,0,0-.48-.79,2.18,2.18,0,0,1,.14.34,2.86,2.86,0,0,1-.13,2.68c-.19.27-.54.59-1,.15Zm7.49-2.94a3.24,3.24,0,0,0-.68-2.19,4.06,4.06,0,0,1,.34,1.75c0,.47,0,2-.51,2.11a2.28,2.28,0,0,1-1.52-.7,2.36,2.36,0,0,0,1.85,1.14c.54-.14.51-1.64.52-2.11Zm-2.12-5.58c.44-.26.88-.69.78-1.89a1.3,1.3,0,0,0-.48-.84.9.9,0,0,1,.09.32c.1,1.21-.34,1.64-.78,1.9a2.18,2.18,0,0,1-2.15-.07,1.82,1.82,0,0,0,2.54.58Zm-6.51-4.88a.87.87,0,0,0,.16.23,1.74,1.74,0,0,0,.7.56c1.14.54,1.4-.5,1.64-.91a1.52,1.52,0,0,0-.45-1.48,1.35,1.35,0,0,1,.16,1.11c-.24.4-.5,1.44-1.63.9a1.46,1.46,0,0,1-.58-.41ZM338,502.06a1.28,1.28,0,0,0-.42-1l0,0a1.43,1.43,0,0,1,.14.63,1.48,1.48,0,0,1-.8,1.4c-.31.05-.87.3-1.28,0,.37.85,1.18.46,1.58.39a1.48,1.48,0,0,0,.8-1.4Zm-.62-1.28c-.05-.06-.09-.12-.14-.17l0,.06.1.11Zm7.93-11.15c.13.32.46.53,1,.55.37,0,1.37.21,1.46-.79a6.89,6.89,0,0,0-.14-1c0-.52.3-1-.16-1.24,0,.25-.11.58-.08.92a6.58,6.58,0,0,1,.13,1c-.08,1-1.09.79-1.46.79a1.48,1.48,0,0,1-.79-.23Zm-8.15-.15c1,.06,1.51-1.06,1.5-2.05a4.5,4.5,0,0,0-.42-2,13.69,13.69,0,0,1-.81-3c-.06-1.51-.41-2.18-.79-2.33a4.48,4.48,0,0,1,.41,2,13.85,13.85,0,0,0,.81,3,4.5,4.5,0,0,1,.42,2c0,1-.45,2.11-1.5,2.05a1.27,1.27,0,0,1-.57-.16,1.17,1.17,0,0,0,1,.51Zm16.8-5.93c.52,0,.89-.39,1-1.18a1.78,1.78,0,0,0-.08-1,3.17,3.17,0,0,1,0,.75c-.08.79-.45,1.2-1,1.18a.32.32,0,0,1-.25-.19c.08.32.18.42.34.44Zm-9.86,1.85c.35-.06,1.36,0,1.27-1a6.08,6.08,0,0,0-.29-.93c-.13-.5.12-1-.37-1.17a4,4,0,0,0,.05.75,7,7,0,0,1,.3.93c.08,1-.92.95-1.28,1a1.24,1.24,0,0,1-.85-.12c.13.41.51.63,1.17.54Zm-2.63-3.55c.28,0,.62,0,1-.63a1.27,1.27,0,0,0-.37-1.44,1.11,1.11,0,0,1,.06,1c-.38.62-.72.66-1,.62a1.37,1.37,0,0,1-.55-.28,1.3,1.3,0,0,0,.87.7Zm4.73,22.8a1.14,1.14,0,0,0,1.39.64,1.44,1.44,0,0,0,.76-1.07,2.18,2.18,0,0,0-.64-1.31,1.72,1.72,0,0,1,.3.85,1.47,1.47,0,0,1-.76,1.08,1.16,1.16,0,0,1-1.05-.19Zm-5-13.25a1.94,1.94,0,0,0,1.16.9c.42.07.92,0,1.51-.85a1.9,1.9,0,0,0-.44-2.1,1.72,1.72,0,0,1,.13,1.69c-.59.89-1.09.93-1.5.85a2,2,0,0,1-.86-.49Zm5.63-8.89a1.5,1.5,0,0,0,1.26.86c.4-.13,1.37-.11,1.05-1.42a2.16,2.16,0,0,0-.39-.88,1.21,1.21,0,0,0-.2-.24,2,2,0,0,1,.28.71c.32,1.31-.65,1.29-1.05,1.42a1.24,1.24,0,0,1-.95-.45Zm-1.35,17.22c-.09-.36-.33-.75-.49-1.19-.23-.64-.37-1.3-.75-1.48a7,7,0,0,1,.46,1.21c.16.44.4.82.49,1.18.31,1.27-.58,1.26-.88,1.35a1.24,1.24,0,0,1-.56-.11.88.88,0,0,0,.85.39c.3-.09,1.19-.08.88-1.35Zm2.87-3.89a25.64,25.64,0,0,0-.73-2.73c-.21-.54.18-.57.06-1.6,0-.31-.15-.45-.29-.47s0,.07,0,.11c.12,1-.27,1.06-.06,1.6.47,1.24.45,1.85.73,2.73s1,1.83-.22,2.09a1,1,0,0,1-.92-.2,1,1,0,0,0,1.19.56c1.22-.27.47-1.31.22-2.09Zm-7.87,13a.72.72,0,0,0,.65.41,1.25,1.25,0,0,0,1.08-1.65c-.18-.77-.66-.86-.54-1.42a7.69,7.69,0,0,0,.49-2.28c-.08-.7-.58-1.39-.5-2.3a9.91,9.91,0,0,0-.15-3.52,3.64,3.64,0,0,1-.33-2c.19-1.15-.06-1.19-.27-1.2a3.34,3.34,0,0,1-.06.87,3.76,3.76,0,0,0,.34,2,9.83,9.83,0,0,1,.14,3.51,8.84,8.84,0,0,0,.51,2.31,7.76,7.76,0,0,1-.5,2.28c-.12.56.36.65.55,1.41a1.27,1.27,0,0,1-1.09,1.66.79.79,0,0,1-.32-.08Zm10.93-4a.93.93,0,0,0,.56.54c.33,0,1.26.2,1.24-1.19,0-.41-.35-.85-.36-1.35,0-.84,0-1.47-.39-1.63a6.59,6.59,0,0,1,.07,1.19c0,.51.35,1,.35,1.36,0,1.39-.9,1.17-1.24,1.19a.7.7,0,0,1-.23-.11Zm-6.95,2.81c.33.76,1,.42,1.4.35a1.26,1.26,0,0,0,.7-1.23,1.17,1.17,0,0,0-.36-.89l0,0a1.32,1.32,0,0,1,.12.55,1.28,1.28,0,0,1-.7,1.24c-.28.05-.77.27-1.13,0Zm1.55-2a.44.44,0,0,0-.12-.15.08.08,0,0,0,0,0l.08.11Zm6-10a1.24,1.24,0,0,0,.87.67c.28,0,.6-.06.94-.76a1.49,1.49,0,0,0-.42-1.51,1.35,1.35,0,0,1,.12,1.12c-.34.7-.66.77-.93.76a1.56,1.56,0,0,1-.58-.28Zm1.8-8.34c-.13-.54.21-.52.2-1.52,0-.31-.09-.46-.22-.49a.53.53,0,0,1,0,.13c0,1-.33,1-.19,1.53.29,1.23.21,1.82.38,2.7s.7,1.87-.38,2a.85.85,0,0,1-.77-.28.89.89,0,0,0,1,.64c1.09-.1.53-1.2.38-2s-.08-1.46-.38-2.7Zm-34.22,26.25a.71.71,0,0,0,.87,0c.18-.19.83-.55.09-1.35-.21-.23-.55-.41-.84-.67s-.8-.79-1.15-.77a9,9,0,0,1,.74.63c.29.26.62.44.84.67.73.8.09,1.16-.09,1.35a1.08,1.08,0,0,1-.46.14Zm8.71-20c1.09-.13.52-1,.37-1.58a18.53,18.53,0,0,0-.4-2.14c-.14-.42.2-.42.18-1.22,0-.3-.13-.4-.3-.37,0,.77-.32.77-.18,1.2a18,18,0,0,1,.4,2.13c.15.62.72,1.46-.37,1.59a1,1,0,0,1-.71-.15.87.87,0,0,0,1,.54Zm4,9.9c.86-.48.34-2.65-.11-3.14l-.23-.24c.38.79.63,2.41-.09,2.81a1.23,1.23,0,0,1-1.24-.14,1.24,1.24,0,0,0,1.67.71Zm-15.85-3.83s-.07.08-.1.22a7.94,7.94,0,0,0,.41,2c.76,2.07,2.07,4.48.58,4.79a.87.87,0,0,1-.75-.16,1,1,0,0,0,1.09.57c1.49-.31.18-2.72-.58-4.79-.53-1.44-.32-2.67-.65-2.63Zm15.85,9.21a1.34,1.34,0,0,0-.33-.12c.27.19.34.51.52.72a1.9,1.9,0,0,1,.67,1.06,2.67,2.67,0,0,1,0,1.23c-.26,1.61-1.28,1.24-1.85,1.15a1,1,0,0,0,.3.16c.54,0,1.68.58,2-1.14a2.76,2.76,0,0,0,0-1.22,1.83,1.83,0,0,0-.67-1.06c-.2-.24-.27-.6-.6-.78Zm-13.26.75a.6.6,0,0,0,.93.05.77.77,0,0,0,.23-1.09c-.14-.24-.28-.35-.42-.37a1,1,0,0,1,.09.15.77.77,0,0,1-.23,1.09.64.64,0,0,1-.6.17Zm17.09-2.46a13.73,13.73,0,0,0-.36-1.44c-.16-.79-.21-1.56-.62-1.83a8.35,8.35,0,0,1,.33,1.44,13.27,13.27,0,0,1,.36,1.45c.15,1.5-.87,1.34-1.22,1.4A1.53,1.53,0,0,1,334,508a1,1,0,0,0,.93.61c.35-.05,1.37.11,1.22-1.4Zm-4.68-.82c.11,1.3-1.22,1.26-1.69,1.34-.85.12-1.34-.14-1.54-.66a1.68,1.68,0,0,0,1.17.18c.48-.08,1.81,0,1.7-1.34a9,9,0,0,0-.4-1.22,8.41,8.41,0,0,1-.07-1.06c.58.22.27.89.44,1.54a8.89,8.89,0,0,1,.39,1.22Zm4.09,5.6a1.45,1.45,0,0,0,1.41.64c.34-.06.72-.23,1-1a1.11,1.11,0,0,0-.34-1,.94.94,0,0,1,.14.72c-.23.8-.61,1-1,1A1.65,1.65,0,0,1,335.57,512Z" transform="translate(-161.97 -278.86)"/><path class="cls-7" d="M327.44,497.08l.22-.06.45-1.08a.68.68,0,0,0-.42-.11,1.43,1.43,0,0,0-.49,1l.24.22Zm2.45,9.09c0,.17,0,.14.11.24a2.92,2.92,0,0,0,.61-.33.42.42,0,0,0-.06-.29h-.24l-.42.37Zm-2-20.82a.44.44,0,0,0,.08.11h0a.73.73,0,0,0,.44-.29c-.06-.14,0-.08-.12-.15l-.19,0-.25.36Zm5.79,20.42.09.15h.12c.22-.35.78-.91.5-1.44h-.27c-.22.23-.64.82-.44,1.28Zm0-8.95h.23l-.42-2.84c-1,.73-.58,2.22.19,2.85Zm-6.51-12.89.59-.46s0-.07,0-.11l-.43,0c-.21.17-.37.27-.31.6Zm.67,6.44h-.08a5.19,5.19,0,0,0-.28,1.43c.11.24.22.34.49.29,0-.57-.08-1.15-.13-1.72Zm2.66,9.93-.27.42a3.25,3.25,0,0,0,.91,1.87l.57-.14a2.81,2.81,0,0,0-.51-1.95l-.7-.2Zm-.16,4v0l-.16-.19-.48,0c-.48.25-.84.37-.82,1.07l.2.18a4,4,0,0,0,1.26-1Zm-1.89-6.38-.29.52.06.18.4-.11c.07-.28.16-.51-.17-.59ZM320,512.44h-.14a.63.63,0,0,0,.08.61.43.43,0,0,0,.27-.2c0-.23,0-.37-.21-.42Zm-.11-3.29a1.12,1.12,0,0,0-.48-.65.76.76,0,0,0,0,.54.53.53,0,0,0,.41.24l.08-.13Zm-2.45-3.21c.16.11.18.16.33,0l.08-.4-.2-.05a.59.59,0,0,0-.21.43Zm10.39-16.17c0-.34.25-1,0-1.29h0a1.72,1.72,0,0,0-.09,1.25l.12,0Zm-9.36,21.3-.1,0a1,1,0,0,0,.26,1c.09,0,0,0,.15,0l.05-.09c-.05-.27,0-.65-.17-.85l-.19-.12Zm29.18-14.6a6,6,0,0,0-.4-2.21,3.51,3.51,0,0,0-.11,2.12l.23.14.28,0Zm1.12-14.28V482l-.17,0-.28.22a.68.68,0,0,0,.1.33h0l.31-.35Zm-16.85,27.57a1.59,1.59,0,0,0-.13-.13l-.42,0a1.2,1.2,0,0,0-.34.61l.05.08a1,1,0,0,0,.85-.57v0Zm15.21-16.3c.07-.46.25-1.33-.13-1.71h0a2.37,2.37,0,0,0,.09,1.75l.07,0Zm-.83-5.63c-.18.25-.43.46-.19.77a2.91,2.91,0,0,0,1.11-.65l-.11-.19a2.43,2.43,0,0,0-.81.07Zm.32,1.69c.26,0,.45-.06.54-.23v-.16l-.17,0-.4.25a.94.94,0,0,0,0,.16Zm-9.92-1.5a2.32,2.32,0,0,0,.19-1.59h-.17c-.21.41-.64,1.14-.23,1.6Zm-.45-5c0-.06.09-.11.13-.16-.15-.4-.32-.79-.44-1.19l-.2,0c-.07.32-.06,1,.25,1.28.1.07.08.05.26,0Zm7.88,1.42.09.08.45-.24v-.21c-.3,0-.49.11-.53.37Zm2.94-3.2a1.64,1.64,0,0,0,.55-.53v-.13a.69.69,0,0,0-.33-.06c-.19.19-.38.36-.25.72Zm-5.78-.31v.13a1.26,1.26,0,0,0,.58,0c0-.06,0-.12.08-.17l-.13-.12-.42,0-.12.13Zm.79-1v-.17a.93.93,0,0,0-.68-.21c-.2.12-.29.15-.4.35l.17.12a1.5,1.5,0,0,0,.92-.09Zm2.77,20.4c.13-.26.3-.57-.11-.65a.81.81,0,0,0-.28.65.58.58,0,0,0,.39,0Zm.7,5.32-.18.08v.15l.07.07c.24.07.51.21.7,0l-.38-.31Zm-2.28-14.17a.64.64,0,0,0-.1-.33h-.66l-.19.22.13.24a.93.93,0,0,0,.82-.12ZM347,502.65l-.42-.12-.3.24a1.25,1.25,0,0,0,0,1,.46.46,0,0,0,.23-.06c.16-.36.45-.58.49-1Zm-3.27-3.9a2.37,2.37,0,0,0,.28-1.08l-.13-.19h-.1a1.18,1.18,0,0,0-.21,1.29ZM345,507.4l.37.13a.35.35,0,0,0,.06-.23c-.11-.12-.19-.14-.44-.12v.22Zm2.45-3.16a2.33,2.33,0,0,0,0-.28h-.19l-.25.34.09.13h.23l.17-.19Zm6.06-18.78a3.08,3.08,0,0,0-.19,1.7h.12a5.61,5.61,0,0,0,.14-1.69Zm-.7,8.53c-.22.14-.44.2-.33.54a2.14,2.14,0,0,0,.87-.17l-.1-.27-.44-.1Zm.55-6c-.23.6-.6,1.94,0,2.33l.12-.05a5.65,5.65,0,0,0-.08-2.28Zm1.14-6.34c-.2.12-.28.14-.37.35l.07.09.1,0,.38-.12c0-.06,0-.13.05-.2s-.15-.1-.23-.15Zm-1.7,13.73-.19.13c0,.18,0,.12.13.2l.28,0,.19-.22a1.17,1.17,0,0,0-.05-.11l-.36,0Zm-9.23-5.47v-.16a1.2,1.2,0,0,0-1-.37c-.24.14-.43.15-.55.4V490a1.94,1.94,0,0,0,1.51-.08Zm8.16,12c-.35.38-.69,1.39,0,1.76a3,3,0,0,0,.26-1.68,1,1,0,0,1-.23-.08Zm-10.16,6.35-.41.23c.07.13,0,.08.13.13l.34-.06.15-.18-.06-.14-.15,0Zm-9.21-26.7-.59-.15a3,3,0,0,0-.5.66c0,.46-.1.81.36.84l.79-1.17-.06-.18ZM335,507.58l0-.19-.16-.15h-.19a1.12,1.12,0,0,0-.4.64l.13.11.3-.05a.57.57,0,0,0,.29-.37Zm1.11-5.14a.44.44,0,0,0-.32-.06l-.12.13.13.15.4.1,0,0c0-.2,0-.2-.13-.28Zm-3.35-19c0-.09-.07-.18-.11-.26h-.18l-.33.42c.07.18.06.12.19.21l.26-.1.17-.28Zm4.47,17.71-.37-.3a.74.74,0,0,0-.47.1l.09.24.6.17c.12-.09.1-.05.15-.21Zm-5.42-14.1-.52,0c-.43.28-.77.48-.78,1.14l.17.15a1.55,1.55,0,0,0,1.24-1.22l-.11-.05Zm.82,1.7-.26,0-.5.5.07.31.31,0,.55-.55a.48.48,0,0,0-.17-.2Zm8.23,18.2.08,0,.1-.1a7.32,7.32,0,0,0,.1-1.69c0-.59.31-1.1.28-1.68l-.12,0a4.77,4.77,0,0,0-.44,3.46Zm-8.51,4.76a.57.57,0,0,0-.08.46l0,0a.67.67,0,0,0,.55-.45l-.06-.09-.45.06ZM337.75,494l-.09-.12-.27,0c-.34.14-.74.14-.53.55l.09,0a.79.79,0,0,0,.8-.44Zm3.22,4.25c-.17.31-.65,1.95-.14,2.37.09.06.08,0,.24,0,0-.37,0-.75,0-1.13s.09-1.09-.09-1.28Zm-.41-2.93-.12.17a1.2,1.2,0,0,0,.18.59l.1-.1v-.65a.22.22,0,0,0-.16,0Zm3.75-12.49-.43,0a1.59,1.59,0,0,0-.59.71l.14.25h.17l.85-.73c-.05-.19,0-.12-.14-.2ZM337,510.58a1.35,1.35,0,0,0-.58-.12c-.25.19-.42.2-.54.52l.09.15a3,3,0,0,0,1-.28,2.51,2.51,0,0,0,0-.27Zm-.09,1.21c-.18.11-.42.1-.45.36.22.23.55,0,.69-.14l0-.13c-.06-.08-.07-.09-.21-.09Zm.54-19.72-.62-.18c-.4.22-.74.27-.83.78.43.2,1-.1,1.51-.25a.42.42,0,0,0-.06-.35Zm-20.57,11.82h0a5.29,5.29,0,0,0-.33-1.26,2.9,2.9,0,0,0,.35,2.86h.17A6.18,6.18,0,0,0,316.91,503.89Z" transform="translate(-161.97 -278.86)"/><polygon class="cls-20" points="191.56 188.04 190.8 198.15 192.62 198.25 193.51 187.96 191.56 188.04"/><path class="cls-7" d="M318.56,523.92c-5.42,1.87-9.33,2.52-9.82.34-.32-1.42.4-2.41,1.65-3.41-1.46.95-2.51,2.18-2.28,3.83.27,2,1.12,3.35,1.91,5.72.67,2,.5,3.94,1.06,5,1,1.86,4.25,4.8,19.08-1.37Z" transform="translate(-161.97 -278.86)"/><path class="cls-11" d="M396.5,496.76c-2.7-1.57-6.09-2.21-15.35.12-3.66.92-13.68,4.39-15.74,5.16-11.93,4.44-18.83,8.47-27.87,12.77-5.16,2.46-14,6.65-19.63,8.58,1.83,5.48,10.27,5.23,15.2,4.68,7.5-3.25,25.75-10.88,36.33-15.35,25.22-10.65,30.67-11.88,30.67-11.88A8.23,8.23,0,0,0,396.5,496.76Z" transform="translate(-161.97 -278.86)"/><path class="cls-12" d="M396.36,497.05c-2.86-1.28-6.07-2-15.34.34-15,3.77-32.44,11.94-44.39,17.63-5.17,2.46-10.69,5-15.41,7a45.85,45.85,0,0,1-9.23,2.61c-2,.25-3.17.07-3.24-1.59-.4,1.15.78,4,1.79,6.82.67,2.18.49,3.65.9,4.65,2.19,5.32,13.06,2,21.7-1.76,7.51-3.24,25.33-12.76,35.64-17.81s31.33-14.08,31.33-14.08A9.42,9.42,0,0,0,396.36,497.05Z" transform="translate(-161.97 -278.86)"/><path class="cls-7" d="M391,502.84c-5,1.43-14.56,5.56-24.09,11.11C370.76,511.78,391,502.84,391,502.84Z" transform="translate(-161.97 -278.86)"/><path class="cls-7" d="M368.69,503c6.33-2.29,13.44-4.69,17.58-5.65-5.68.5-22.69,6-39.09,14.21C350.89,510,361.16,505.68,368.69,503Z" transform="translate(-161.97 -278.86)"/><path class="cls-7" d="M314.81,515.64C305,517.76,286.74,525,286.74,525c11.12-3.74,23.33-7.57,25.88-8.22a10.6,10.6,0,0,0,2.19-1.09Zm-7.59,10.72c-4.36,1-14.06,4-16.28,4.84,0,0,11.35-3.21,16.49-4.11A4.64,4.64,0,0,1,307.22,526.36Z" transform="translate(-161.97 -278.86)"/><path class="cls-7" d="M312.92,526.19c-.76.07-1.71.11-2.2-.53,0,0,1.93.93,10.35-2.36,7.58-3,16.11-7.21,20.38-9.17,0,0-14.22,8.42-24.91,11.37A18,18,0,0,1,312.92,526.19Z" transform="translate(-161.97 -278.86)"/><path class="cls-7" d="M221,374.1c-20.63-.2-32.08-4.49-35.8-5.54C198.79,378.3,212.74,376,221,374.1Z" transform="translate(-161.97 -278.86)"/></g><path id="blue" class="cls-5" d="M235.18,425.25q0-3.66.11-7.32.17-10.24.32-20.48L219.51,402l-1.39,62.59,16.46-1.47.21-13.2q.11-6.49.2-13l.11-7c0-1.13,0-2.26.06-3.39,0-1.43.2-1.51,1.7-2.06,4.39-1.62,6.94-1.36,7.32-1.33,5.72.49,9.32,6.9,9.7,7.61,3.2,5.88,3.57,16-3.37,19.84-5.49,3.06-12.32.41-13.38,0l.21,8a9.83,9.83,0,0,0,2.06,1.92c5.84,4.07,14.83,1,16.94.26,10.08-3.78,13.8-13.13,14.6-15.13,1.22-3.06,5.08-12.74-1-21.06-4.57-6.22-12-7.93-14.1-8.35,1.67-1.16,5.71-4.3,7-9.5,1.69-6.59-1.93-12.79-5.49-16-10.33-9.38-31.7-4.13-43.86,2.83-3.48,2-14.51,8.32-16.77,19.34-.36,1.71-2,9.82,3.08,13.49,3.66,2.64,10,2.41,11.34.21,1.12-1.81-1.84-3.85-3-7.88-2.42-8.24,5-16.6,5.65-17.3,8.92-9.76,28-12.1,34.36-5.12,3.09,3.43,3.1,9,1,13.2-2.39,4.8-7.71,8.05-13.86,8.49m147.5,2.14c1.94-.36,16.82-3.32,21.72-14.52.72-1.63,4-9.11-.25-14.34-2.65-3.28-6.91-4-8.48-4.31-11.57-2.06-21.56,7.81-23,9.23a29.89,29.89,0,0,0-7,11.45,51,51,0,0,0,.1,21.47c-2,3.53-5.49,5.7-8.81,5.43a7.32,7.32,0,0,1-3.32-1.12l-1.25-38.16L336.76,397l1.08,33.4c-2.57,5.77-6.68,9.3-10.06,8.85a4.75,4.75,0,0,1-2.36-1l-1.57-39.63-16.32,1.84.85,34.54a16.28,16.28,0,0,1-1,1.91c-.74,1.17-4.58,6.9-9.86,6.73a7.71,7.71,0,0,1-3-.77l-.75-58.51-16.29,2.58.84,61a9.28,9.28,0,0,0,3.76,5.73c5.53,3.65,16.7.84,26.74-8.21a12.85,12.85,0,0,0,5.89,4.53c7,2.55,16.75-1.25,23.81-9.85a12.29,12.29,0,0,0,5.93,5.4c6.71,2.77,16.79-.86,23.95-9.73,7.53,6.58,18.56,7.65,26.32,3,8.83-5.24,9.1-15.26,9.11-16.05-6.06,5.92-13.5,8-17.68,5.63-4.36-2.43-4-9-3.76-13.56.59-10.81,7-21.91,10.79-21.38,2.22.31,3,4.46,3.08,4.66,1.08,5.78-4.32,12.64-13.87,16.72" transform="translate(-161.97 -278.86)"/><g id="labatt"><path id="labatt-2" data-name="labatt" class="cls-5" d="M297.26,366.35a18.25,18.25,0,0,1-4,1.34,10.87,10.87,0,0,1-3.7.33,7.41,7.41,0,0,1-5.09-2.25,5.54,5.54,0,0,0-1.09-1.22,1,1,0,0,0-1.41,0,15,15,0,0,1-2.63,2.57A12.33,12.33,0,0,1,275,369.4a7,7,0,0,1-3.68.24,5.4,5.4,0,0,1-4.09-4.29,24.93,24.93,0,0,1-6.65,5.22,7,7,0,0,1-2.88.89,7.15,7.15,0,0,1-4.07-1,8.92,8.92,0,0,1-2.83-2.82,13.33,13.33,0,0,1-1.86-7.25c-.09-2.4-.23-7.65,3.12-12.48a16.57,16.57,0,0,1,3.21-3.48,11.93,11.93,0,0,1,7-3.06,10.25,10.25,0,0,1,5.13,1.15c0-.73.22-1.5.25-2.23,2.83.1,5.69.25,8.51.12-.55,4.82-1.45,18.8-.82,20.76a3.57,3.57,0,0,0,1.55,2.15,4,4,0,0,0,2.58.16,4.17,4.17,0,0,0,1.8-.75,4.74,4.74,0,0,0,1.49-3.31c.28-2.63.73-14.34,1-30.33a28,28,0,0,1,9.86-3c-.25,2-.46,4.06-.62,6.24s-.24,4.28-.28,6.27c.38-.19,6.26-3.16,9.78-.41,1.39,1.08,1.89,2.63,2.5,4.57a21.59,21.59,0,0,1,.72,9.08c-.33,2.81-.86,7.32-4.32,11.2A16,16,0,0,1,297.26,366.35Zm69.67-14.58c.16-6.79.35-13.65.51-20.44l5.1-.21c0-1.11,0-2.21,0-3.31l-5.14.38.45-8.31L360.5,321c-.12,2.79-.23,5.57-.35,8.36l-2.83.21a25.12,25.12,0,0,0-.1,2.88l2.35,0c0,3.36,0,5.82,0,7.86,0,4.58-.2,6.75-1.41,9.14a7.77,7.77,0,0,1-2.55,3c-.23.15-2.64,1.76-3.84.91-.65-.46-.63-1.45-.69-1.88-.61-4.48.33-15.47.17-18.67l4.34-.1c0-.91.06-1.79.09-2.7l-3.93.13c0-1.19,0-2.4,0-3.62,0-1.41.05-2.78.1-4.13l-8.68.6c0,2.69-.11,5.53-.14,8.22l-2.66.14-.19,2.73,2.38-.09q0,4.74-.06,9.65t-.25,9.44a12.08,12.08,0,0,1-3.18,2.18c-1.43.66-2,.55-2.24.44a2.35,2.35,0,0,1-1.3-1.56,6.65,6.65,0,0,1-.17-2.09l.23-13.13a44.45,44.45,0,0,1,.23-6.43l-8.65.26a18.35,18.35,0,0,1,0,2.46,9.32,9.32,0,0,0-12.05,1.15A19.46,19.46,0,0,0,309,346.84a21.6,21.6,0,0,0-.65,6.22c.13,2.77.28,6.16,2.8,8.7a8.88,8.88,0,0,0,4,2.29,9.08,9.08,0,0,0,7.83-1.66c2.49-2,2.36-4.6,3.76-4.69,1.69-.11,2,3.56,4.81,4.47,2.61.83,5.56-1.27,6.94-2.25a14.07,14.07,0,0,0,3.51-3.65,9.06,9.06,0,0,0,3.92,3.22,9.72,9.72,0,0,0,10.54-2.56,8.61,8.61,0,0,0,1.4-2.16,6.28,6.28,0,0,0,4.65,3.45,7.45,7.45,0,0,0,5.59-1.32,8.49,8.49,0,0,0,3.35-4.74ZM251.64,383.32c4.93,4.9,11.84,5,15.18,1.74,3.07-3,2.22-8,2.11-8.6-7.27,4.44-16.61-1.4-26.87-3.15,1.37-13.79,2.57-27.85,3.57-41.88-7.29.35-14.09,1.23-20.29,11.15-.7,1.39-3.7,7.32-1,10.43,1.67,1.93,5.24,2.45,6.43,1.15,1.33-1.47-1.39-4.08-1-8.58.41-4.84,4.18-9,5.43-8.57.57.19.55,1.32.14,10.43-.27,6.07-.4,9.12-.49,10.17-.57,6.61-.85,9.92-1.51,12.56-.82,3.27-1.54,4.65-.71,5.86a27,27,0,0,1,19,7.29" transform="translate(-161.97 -278.86)"/><path class="cls-8" d="M259,364.12a2.09,2.09,0,0,0,.81.42,4.84,4.84,0,0,0,3.59-.41,9,9,0,0,0,2.88-2.21q.09-3.78.24-7.63c.11-2.89.23-5.75.38-8.57a4.86,4.86,0,0,0-3.31-.78,4.4,4.4,0,0,0-1.4.47,7.82,7.82,0,0,0-3,3.83,17.84,17.84,0,0,0-1.29,5.53A26.73,26.73,0,0,0,258,361C258.08,361,258.41,363.59,259,364.12Z" transform="translate(-161.97 -278.86)"/><path class="cls-8" d="M324.34,356.7a4.82,4.82,0,0,1-2.71,1,4.74,4.74,0,0,1-2.19-.59c-3.05-1.81-2-10.24.19-15.56.62-1.52,1.33-2.79,2.71-3.37a5.18,5.18,0,0,1,4.08.28c.06,3.4.06,8-.19,13C326.15,353,326,355.37,324.34,356.7Z" transform="translate(-161.97 -278.86)"/><path class="cls-8" d="M292.2,342.33h0s-.29,6.19-.85,18a3.85,3.85,0,0,0,2.21,1,4.58,4.58,0,0,0,3.28-1.33,8.09,8.09,0,0,0,2.26-3.24,13.93,13.93,0,0,0,1.09-4.11c.26-2.15.58-4.86-.86-7.53-.48-.89-1.67-3.09-3.62-3.37A9.16,9.16,0,0,0,292.2,342.33Z" transform="translate(-161.97 -278.86)"/></g></svg>